<svg xmlns="http://www.w3.org/2000/svg" width="700" height="300" viewBox="0 0 700 300">
  <rect width="700" height="300" fill="white"/>
  <g stroke="#333" stroke-width="2" fill="none">
    <line x1="100" y1="150" x2="250" y2="80"/>
    <line x1="100" y1="150" x2="250" y2="220"/>
    <line x1="250" y1="80" x2="400" y2="40"/>
    <line x1="250" y1="80" x2="400" y2="120"/>
    <line x1="250" y1="220" x2="400" y2="180"/>
    <line x1="250" y1="220" x2="400" y2="260"/>
  </g>
  <g stroke="#333" stroke-width="2" fill="#f5f5f5">
    <circle cx="100" cy="150" r="28"/>
    <circle cx="250" cy="80" r="28"/>
    <circle cx="250" cy="220" r="28"/>
    <circle cx="400" cy="40" r="28"/>
    <circle cx="400" cy="120" r="28"/>
    <circle cx="400" cy="180" r="28"/>
    <circle cx="400" cy="260" r="28"/>
  </g>
  <g font-family="Arial, sans-serif" font-size="20" text-anchor="middle" dominant-baseline="middle" fill="#111">
    <text x="100" y="150">A</text>
    <text x="250" y="80">B</text>
    <text x="250" y="220">C</text>
    <text x="400" y="40">D</text>
    <text x="400" y="120">E</text>
    <text x="400" y="180">F</text>
    <text x="400" y="260">G</text>
  </g>
  <text x="350" y="292" font-family="Arial, sans-serif" font-size="16" text-anchor="middle" fill="#111">BFS / DFS Graph – Start Vertex A</text>
</svg>
